<mxfile host="app.diagrams.net" modified="2023-12-21T03:26:13.175Z" agent="Mozilla/5.0 (Windows NT 10.0; Win64; x64) AppleWebKit/537.36 (KHTML, like Gecko) Chrome/120.0.0.0 Safari/537.36" etag="-O_2McioDxh5HPx0unqD" version="22.1.11" type="github">
  <diagram name="Page-1" id="e7e014a7-5840-1c2e-5031-d8a46d1fe8dd">
    <mxGraphModel dx="1434" dy="772" grid="1" gridSize="10" guides="1" tooltips="1" connect="1" arrows="1" fold="1" page="1" pageScale="1" pageWidth="1169" pageHeight="826" background="none" math="0" shadow="0">
      <root>
        <mxCell id="0" />
        <mxCell id="1" parent="0" />
        <mxCell id="gpmdc8580eK0XPyTLeN1-41" value="" style="ellipse;shape=startState;fillColor=#000000;strokeColor=#ff0000;" parent="1" vertex="1">
          <mxGeometry x="495" y="35" width="30" height="30" as="geometry" />
        </mxCell>
        <mxCell id="gpmdc8580eK0XPyTLeN1-42" value="Write Code" style="ellipse;whiteSpace=wrap;html=1;" parent="1" vertex="1">
          <mxGeometry x="625" y="10" width="120" height="80" as="geometry" />
        </mxCell>
        <mxCell id="gpmdc8580eK0XPyTLeN1-43" value="Select Runtime" style="rounded=0;whiteSpace=wrap;html=1;" parent="1" vertex="1">
          <mxGeometry x="450" y="140" width="120" height="60" as="geometry" />
        </mxCell>
        <mxCell id="gpmdc8580eK0XPyTLeN1-44" value="Configure Function" style="rounded=0;whiteSpace=wrap;html=1;" parent="1" vertex="1">
          <mxGeometry x="625" y="140" width="120" height="60" as="geometry" />
        </mxCell>
        <mxCell id="gpmdc8580eK0XPyTLeN1-46" value="Review and Create" style="rounded=0;whiteSpace=wrap;html=1;" parent="1" vertex="1">
          <mxGeometry x="450" y="240" width="120" height="60" as="geometry" />
        </mxCell>
        <mxCell id="gpmdc8580eK0XPyTLeN1-47" value="" style="ellipse;shape=endState;fillColor=#000000;strokeColor=#ff0000" parent="1" vertex="1">
          <mxGeometry x="670" y="255" width="30" height="30" as="geometry" />
        </mxCell>
        <mxCell id="gpmdc8580eK0XPyTLeN1-48" value="" style="endArrow=classic;html=1;rounded=0;exitX=1;exitY=0.5;exitDx=0;exitDy=0;entryX=0;entryY=0.5;entryDx=0;entryDy=0;" parent="1" source="gpmdc8580eK0XPyTLeN1-41" target="gpmdc8580eK0XPyTLeN1-42" edge="1">
          <mxGeometry width="50" height="50" relative="1" as="geometry">
            <mxPoint x="805" y="140" as="sourcePoint" />
            <mxPoint x="855" y="90" as="targetPoint" />
          </mxGeometry>
        </mxCell>
        <mxCell id="gpmdc8580eK0XPyTLeN1-49" value="" style="endArrow=classic;html=1;rounded=0;exitX=0.5;exitY=1;exitDx=0;exitDy=0;entryX=0.5;entryY=0;entryDx=0;entryDy=0;" parent="1" source="gpmdc8580eK0XPyTLeN1-41" target="gpmdc8580eK0XPyTLeN1-43" edge="1">
          <mxGeometry width="50" height="50" relative="1" as="geometry">
            <mxPoint x="805" y="140" as="sourcePoint" />
            <mxPoint x="855" y="90" as="targetPoint" />
          </mxGeometry>
        </mxCell>
        <mxCell id="gpmdc8580eK0XPyTLeN1-50" value="" style="endArrow=classic;html=1;rounded=0;exitX=1;exitY=0.5;exitDx=0;exitDy=0;entryX=0;entryY=0.5;entryDx=0;entryDy=0;" parent="1" source="gpmdc8580eK0XPyTLeN1-43" target="gpmdc8580eK0XPyTLeN1-44" edge="1">
          <mxGeometry width="50" height="50" relative="1" as="geometry">
            <mxPoint x="805" y="140" as="sourcePoint" />
            <mxPoint x="855" y="90" as="targetPoint" />
          </mxGeometry>
        </mxCell>
        <mxCell id="gpmdc8580eK0XPyTLeN1-51" value="" style="endArrow=classic;html=1;rounded=0;exitX=0.5;exitY=1;exitDx=0;exitDy=0;entryX=0.5;entryY=0;entryDx=0;entryDy=0;" parent="1" source="gpmdc8580eK0XPyTLeN1-42" target="gpmdc8580eK0XPyTLeN1-44" edge="1">
          <mxGeometry width="50" height="50" relative="1" as="geometry">
            <mxPoint x="805" y="140" as="sourcePoint" />
            <mxPoint x="855" y="90" as="targetPoint" />
          </mxGeometry>
        </mxCell>
        <mxCell id="gpmdc8580eK0XPyTLeN1-52" value="" style="endArrow=classic;html=1;rounded=0;exitX=0.5;exitY=1;exitDx=0;exitDy=0;entryX=0.5;entryY=0;entryDx=0;entryDy=0;" parent="1" source="gpmdc8580eK0XPyTLeN1-43" target="gpmdc8580eK0XPyTLeN1-46" edge="1">
          <mxGeometry width="50" height="50" relative="1" as="geometry">
            <mxPoint x="805" y="140" as="sourcePoint" />
            <mxPoint x="505" y="230" as="targetPoint" />
          </mxGeometry>
        </mxCell>
        <mxCell id="gpmdc8580eK0XPyTLeN1-54" value="" style="endArrow=classic;html=1;rounded=0;exitX=1;exitY=0.5;exitDx=0;exitDy=0;" parent="1" source="gpmdc8580eK0XPyTLeN1-46" target="gpmdc8580eK0XPyTLeN1-47" edge="1">
          <mxGeometry width="50" height="50" relative="1" as="geometry">
            <mxPoint x="805" y="140" as="sourcePoint" />
            <mxPoint x="855" y="90" as="targetPoint" />
          </mxGeometry>
        </mxCell>
        <mxCell id="gpmdc8580eK0XPyTLeN1-55" value="" style="endArrow=classic;html=1;rounded=0;exitX=0.5;exitY=1;exitDx=0;exitDy=0;entryX=0.5;entryY=0;entryDx=0;entryDy=0;" parent="1" source="gpmdc8580eK0XPyTLeN1-44" target="gpmdc8580eK0XPyTLeN1-47" edge="1">
          <mxGeometry width="50" height="50" relative="1" as="geometry">
            <mxPoint x="805" y="140" as="sourcePoint" />
            <mxPoint x="855" y="90" as="targetPoint" />
          </mxGeometry>
        </mxCell>
      </root>
    </mxGraphModel>
  </diagram>
</mxfile>
